<svg width="32" height="32" viewBox="0 0 512 512" fill="none" xmlns="http://www.w3.org/2000/svg">
  <path d="M256 48C145.5 48 56 137.5 56 248C56 325.3 100.2 392.3 164.5 425.1C160.7 414.7 158 403.5 156.4 391.7C107.1 361.6 74.7 308.6 74.7 248C74.7 148.1 156.1 66.7 256 66.7C355.9 66.7 437.3 148.1 437.3 248C437.3 308.6 404.9 361.6 355.6 391.7C354 403.5 351.3 414.7 347.5 425.1C411.8 392.3 456 325.3 456 248C456 137.5 366.5 48 256 48Z" fill="#0957c3"/>
  <path d="M256 140C211.8 140 176 175.8 176 220C176 264.2 211.8 300 256 300C300.2 300 336 264.2 336 220C336 175.8 300.2 140 256 140ZM256 281.3C222.1 281.3 194.7 253.9 194.7 220C194.7 186.1 222.1 158.7 256 158.7C289.9 158.7 317.3 186.1 317.3 220C317.3 253.9 289.9 281.3 256 281.3Z" fill="#0957c3"/>
  <path d="M256 320C189.7 320 136 373.7 136 440H376C376 373.7 322.3 320 256 320Z" fill="#0957c3"/>
</svg>